<?xml version="1.0" encoding="utf-8"?>
<!-- Generator: Adobe Illustrator 27.3.1, SVG Export Plug-In . SVG Version: 6.00 Build 0)  -->
<svg version="1.1" id="LOGO" xmlns="http://www.w3.org/2000/svg" xmlns:xlink="http://www.w3.org/1999/xlink" x="0px" y="0px"
	 viewBox="0 0 666.2 265" style="enable-background:new 0 0 666.2 265;" xml:space="preserve">
<style type="text/css">
	.st0{fill:#FFFFFF;}
	.st1{fill:#1D428A;}
	.st2{fill:#C8102E;}
	.st3{fill:#202124;}
</style>
<g>
	<path class="st0" d="M103.7,19H62.9c-10,0-18,8.1-18,18v138.1c0,10,8.1,18.1,18,18.1h40.8c9.9,0,18.1-8.1,18.1-18.1V37
		C121.8,27.1,113.7,19,103.7,19"/>
	<path class="st1" d="M102,172.5c-2.2-2-0.7-2.8-0.8-3.6c-1.5-6-6.3-9.7-3.8-11.7c-0.6-2-1.9-4.5-1.8-4.5
		c-7.5-4.3-13.8-11.3-14.9-12.3c-1.3-1.4-3.5-2.9-4-4c-1.8-1.6-10.6-14.1-12.6-18.7l-3.6-0.5c-1.6-6.6-7.1-12.2-7.2-18.9
		c0-2.5,1.1-7.9,1.6-9c0.4-1.1,2.5-2.9,2.5-2.9v-1.8c-7.8,0.2-5.6-0.6-6.9-3.6c-0.9-2.1-0.3-2.6,0.1-4c1-4.3,4.5-10.9,6-13.9
		c0.4-1.5,1.9-5.2,1.9-5.2c5.8-11.8,8-11,14.9-11.6l0.3-0.5c6.9-0.3,5.8-0.8,6.8-7.5c-1,0.4-1.3-2.1-1.3-2.1c-0.6-3.8,1-3.1,1.8-3.1
		c0.2-6.2,0.8-8.2,5.3-9.9H62.9c-7.6,0-13.8,6.2-13.8,13.8v138.1c0,7.6,6.2,13.8,13.8,13.8h40.8C99,186.4,101.8,181.6,102,172.5"/>
	<path class="st2" d="M93.6,50.9v0.6c1.2,0.7,1.9,1.3,3.1,2.1c3.3,2.1,7.4,5.8,6.9,18.6c0.9,2.8,1.3,8.3,2.2,10.1
		c1.7,3.4,2.9,5.7,3.4,8.9c0,0,0.5,5,1.2,5.4c3.4,0.8,2.4,1.1,2.9,1.7c0.5,0.7,2.5,0.7,2.5,2.5c0.7,0.9,1.2,1.9,1.6,2.9V37
		c0-7.6-6.2-13.8-13.8-13.8H90.5c2.1,0.7,3.3,1.6,4,3c1.7,0.1,3.7,4,0.6,9.6c1.4,0.9,0.3,2.3-0.7,3.9c-0.3,0.5-0.6,1.4-1.5,1.4
		c-1.2,2.5-2.6,5-3.7,5.1c-0.3,0.4-0.6,1.5-0.1,2C90.7,49,92.6,50,93.6,50.9"/>
	<path class="st2" d="M117.5,112.8c-1.8,4.5-6.2,7.7-11.4,7.7c-6.8,0-12.3-5.5-12.3-12.3c0-5.8,4-10.7,9.4-12
		c-1.4-3.5-4.4-9.3-5.3-11.2C97,83.3,95,71.6,94.5,69.3c-0.1-0.5-5.3,3-5.3,3.2c-0.3,0.3-3.9,9.7-4.1,10.2C85,83,85,84.3,85,84.3
		s1.8,0.2,2.8,3.3c1,3.1,4.1,14.3,4.1,14.3s-0.8,0.9-0.9,0.8c3.9,13,2.5,18.6,4.3,22.4c2.2,5.4,2.8,4.7,4.7,9.2
		c1.3,3.3,2.9,16.2,3.4,16.8c2.1,2.7,3.2,4.7,3.2,6.2s-1.8,6-1.1,8.6c0.4,1.5,0.6,5,1.3,5.6c0,0,0.7,1.3,0.3,1.9
		c-0.1,0.2-0.3,0.5-0.2,0.7c1.2,4.1,4.9,11-1.2,14.7h0.1c6.6-1,11.6-6.7,11.6-13.6L117.5,112.8L117.5,112.8z"/>
	<path class="st0" d="M60.7,180.3h-2.9v-25h4.6l3.7,20.5c-0.3-4.9-0.7-10.8-0.7-15.9v-4.6h2.9v25h-4.2l-3.7-20
		c0.2,4.6,0.3,8.3,0.3,12.2C60.7,172.5,60.7,180.3,60.7,180.3z M86.4,158.1h-0.2c-0.2,3-0.6,8.3-0.8,10l-0.4,4.3h2.6l-0.4-4.3
		C87.1,166.3,86.6,161.1,86.4,158.1 M87.9,175.2h-3l-0.4,5.1h-3.4l3-25h4.8l2.9,25h-3.5L87.9,175.2z M74,158.4v8.3h1.2
		c1.2,0,1.5-0.4,1.5-1.8v-4.8c0-1.2-0.4-1.7-1.5-1.7H74z M74,169.4v7.7h1.3c1.1,0,1.5-0.6,1.5-1.8v-4.2c0-1.2-0.4-1.7-1.5-1.7H74z
		 M70.6,180.3v-25h4.9c2.8,0,4.5,1.5,4.5,5v3.7c0,2.3-0.7,3.4-1.7,4c1,0.7,1.7,1.8,1.7,3.7v3.6c0,3.4-1.8,5-4.5,5H70.6z"/>
</g>
<g>
	<path class="st1" d="M166.5,138.9l-5.1,49.6H139l17.5-167h26c21.5,0,30.9,11.6,28.3,34.8l-5.4,49.6c-1.2,11.7-4.7,20.1-10.3,25.3
		c-5.6,5.1-13.3,7.7-23.1,7.7H166.5z M176.6,42.6l-8,76.2h4c3.9,0,6.5-1,7.7-3s2.1-5.1,2.6-9.1l5.4-52.2c0.5-4.1,0.1-7.1-1.2-9
		s-3.8-2.9-7.7-2.9C179.4,42.6,176.6,42.6,176.6,42.6z"/>
	<polygon class="st1" points="247.7,188.5 206.7,188.5 224.3,21.5 246.7,21.5 231.3,167.4 249.8,167.4 	"/>
	<path class="st1" d="M294.9,155.5h-13.8l-5.4,33h-23.2l33.7-167H319l-1.6,167h-23.9L294.9,155.5z M284.4,134.7h11.5l1.2-27.1
		c0.2-3.1,0.4-7.8,0.7-13.9c0.3-6.2,0.6-12.8,0.9-19.9s0.6-14.2,0.9-21.3s0.5-13.1,0.7-18.1l-11.5,73.2L284.4,134.7z"/>
	<polygon class="st1" points="359.5,145 354.8,188.5 332.3,188.5 337.2,142.7 329.8,21.5 353.4,21.5 352.9,110.4 370.2,21.5 
		393.1,21.5 	"/>
	<path class="st1" d="M396.2,52.9c1.2-12.2,4.4-20.7,9.6-25.5c5.1-4.8,12.2-7.2,21-7.2c18.4,0,27.6,9.3,27.6,27.8
		c0,1.1,0,2.3-0.1,3.5s-0.2,2.5-0.4,3.7l-10.8,102c-1.3,12.2-4.3,20.7-9.1,25.5c-4.8,4.8-11.9,7.2-21,7.2
		c-18.7,0-28.1-9.3-28.1-27.8c0-1.2,0-2.5,0.1-3.6c0.1-1.2,0.2-2.4,0.4-3.6L396.2,52.9z M408.1,155.3c-0.2,1.1-0.3,2.2-0.4,3.3
		s-0.1,2.1-0.1,3c0,2.7,0.5,4.5,1.4,5.6s2.5,1.6,4.7,1.6s3.8-0.8,4.8-2.5c1-1.6,1.8-4.5,2.2-8.5l10.5-103.1c0.2-1.2,0.3-2.3,0.3-3.3
		c0.1-0.9,0.1-1.9,0.1-2.8c0-2.8-0.5-4.8-1.4-5.8c-0.9-1.1-2.4-1.6-4.4-1.6c-2.3,0-4,0.8-5,2.5c-1,1.6-1.8,4.5-2.2,8.5L408.1,155.3z
		"/>
	<polygon class="st1" points="482.2,112.3 474.3,188.5 451.8,188.5 469.4,21.5 511.9,21.5 509.8,42.6 489.7,42.6 484.3,94 502.3,94 
		500.5,112.3 	"/>
	<polygon class="st1" points="532.5,112.3 524.6,188.5 502.1,188.5 519.6,21.5 562.2,21.5 560.1,42.6 540,42.6 534.6,94 552.6,94 
		550.7,112.3 	"/>
	<path class="st1" d="M612,158.1c-1.3,10.3-4.2,18.2-9,23.6c-4.8,5.5-11.8,8.2-21.2,8.2s-16.4-2.4-21-7.1c-4.7-4.8-7-11.2-7-19.3
		c0-2,0.1-4.2,0.2-6.5c0.2-2.3,0.4-4.4,0.7-6.1l2.1-17.1h22.4l-2.3,20.1c-0.2,1.2-0.3,2.5-0.4,3.6c-0.1,1.2-0.1,2.5-0.1,4.1
		c0,4.8,1.9,7.3,5.8,7.3c2.5,0,4.2-1,5.1-2.9c0.9-1.9,1.6-4.9,2.1-9l0.5-4.4c0.2-1.1,0.3-2.1,0.4-3c0.1-0.9,0.1-1.9,0.1-3
		c0-2.8-0.2-5.3-0.7-7.5s-1.2-4.5-2.2-6.9s-2.3-5.2-4-8.3c-1.6-3.1-3.6-6.9-6-11.5c-4.2-8.1-7.4-15.8-9.6-23
		c-2.2-7.2-3.3-14.4-3.3-21.4c0-1.9,0-3.5,0.1-4.9s0.2-2.6,0.4-3.7l0.5-4.2c1.2-11.8,4.6-20.6,9.9-26.3c5.4-5.7,12.7-8.5,21.9-8.5
		c8.9,0,15.4,2.3,19.4,7c4.1,4.7,6.1,11.2,6.1,19.6c0,2-0.1,4.2-0.2,6.5c-0.2,2.3-0.4,4.8-0.7,7.5l-1.9,17.3h-22l2.1-20.1
		c0.3-2.5,0.5-4.4,0.6-5.7s0.1-2.6,0.1-3.9c0-4.8-1.7-7.3-5.1-7.3c-2.5,0-4.3,1.1-5.5,3.3s-2,5.5-2.5,10.1l-0.2,2.1
		c-0.2,1.2-0.3,2.6-0.4,4c-0.1,1.4-0.1,3-0.1,4.7c0,2.7,0.2,5.3,0.7,7.8c0.5,2.6,1.2,5.2,2.1,8c0.9,2.7,2.1,5.7,3.6,8.9
		c1.5,3.2,3.2,6.7,5.3,10.6c4.4,8.4,7.9,15.7,10.5,21.7c2.6,6.1,4,12.6,4,19.4c0,1.7,0,3.4-0.1,4.9c-0.1,1.6-0.3,3.4-0.6,5.6
		L612,158.1z"/>
</g>
<g>
	<path class="st1" d="M49.6,233.5v12H47v-36.4h3.2c4.5,0,6.4,1.6,6.4,11v3.7c0,8.1-2.3,9.8-5.7,9.7H49.6z M49.6,211.8V231H51
		c1.9,0,3-1.9,3-7.5v-3.3c0-5.5-0.7-8.4-2.9-8.4H49.6z"/>
	<path class="st1" d="M61.8,245.5h-2.4V217H61c0.4,0.7,0.6,1.3,0.7,1.9c0.6-1.5,2.2-2.2,4.1-2.2l0,0v2.5h-0.2c-2,0-3.8,0.8-3.8,2.3
		C61.8,221.5,61.8,245.5,61.8,245.5z"/>
	<path class="st1" d="M71.7,245.8c-2.8,0-4.6-1.3-4.6-6v-17c0-4.7,1.8-6.1,4.6-6.1c2.8,0,4.6,1.3,4.6,6v10.2h-6.7v7.5
		c0,2,0.4,3.2,2.1,3.2s2.1-1.2,2.1-3.2v-3.8h2.4v3.2C76.3,244.5,74.5,245.8,71.7,245.8 M69.5,230.7h4.3V222c0-2-0.4-3.2-2.1-3.2
		s-2.1,1.2-2.1,3.2v8.7H69.5z"/>
	<path class="st1" d="M82.6,231.8c-2-3.1-3.8-5.9-3.8-9.2c0-3.8,1.3-5.9,4.6-5.9c3.4,0,4.6,2,4.6,6.4v2.5h-2.4v-3
		c0-2.6-0.5-3.7-2.1-3.7s-2.1,1.1-2.1,3.4c0,2.4,1.4,5.2,3.3,8c2.4,3.5,3.4,6.8,3.4,9.9c0,3.5-1.3,5.7-4.6,5.7
		c-3.4,0-4.6-1.9-4.6-6.7v-2.4h2.4v2.4c0,3.4,0.5,4.5,2.2,4.5c1.5,0,2-1.4,2-3.5C85.5,238.2,84.6,234.9,82.6,231.8"/>
	<path class="st1" d="M95.1,245.8c-2.8,0-4.6-1.3-4.6-6v-17c0-4.7,1.8-6.1,4.6-6.1c2.8,0,4.6,1.3,4.6,6v10.2H93v7.5
		c0,2,0.4,3.2,2.1,3.2s2.1-1.2,2.1-3.2v-3.8h2.4v3.2C99.7,244.5,97.9,245.8,95.1,245.8 M93,230.7h4.3V222c0-2-0.4-3.2-2.1-3.2
		s-2.1,1.2-2.1,3.2v8.7H93z"/>
	<path class="st1" d="M105.2,245.5h-2.4V217h1.8c0.2,0.4,0.3,0.8,0.3,1.2c0.8-0.9,2.1-1.5,3.5-1.5c1.8,0,3.6,0.9,3.6,4.1v24.8h-2.4
		V221c0-1.3-0.6-2.2-1.9-2.2c-1,0-1.7,0.4-2.4,0.9c0,0.4,0,0.8,0,1.1L105.2,245.5L105.2,245.5z"/>
	<path class="st1" d="M119.2,245.6c-2.5,0-3.9-0.9-3.9-4.1v-22.3h-1.6V217h1.6v-5.3l2.4-0.6v5.9h2.3v2.2h-2.3v22.2
		c0,1.4,0.6,1.9,1.8,1.9h0.7v2.2C119.9,245.6,119.6,245.6,119.2,245.6"/>
	<path class="st1" d="M126.3,245.8c-2.8,0-4.6-1.3-4.6-6v-17c0-4.7,1.8-6.1,4.6-6.1c2.8,0,4.6,1.3,4.6,6v10.2h-6.7v7.5
		c0,2,0.4,3.2,2.1,3.2c1.7,0,2.1-1.2,2.1-3.2v-3.8h2.4v3.2C130.9,244.5,129.1,245.8,126.3,245.8 M124.2,230.7h4.3V222
		c0-2-0.4-3.2-2.1-3.2c-1.7,0-2.1,1.2-2.1,3.2v8.7H124.2z"/>
	<path class="st1" d="M141,244.3c-0.8,0.9-2.1,1.5-3.5,1.5c-1.8,0-3.6-0.9-3.6-4.1v-21c0-3.2,1.7-4.1,3.6-4.1c1.2,0,2.3,0.5,3.2,1.2
		v-8.7h2.4v36.4h-1.8C141.1,245.1,141,244.7,141,244.3 M138.3,243.6c1,0,1.7-0.4,2.4-0.9c-0.1-0.4-0.1-0.8-0.1-1.1v-21.8
		c-0.6-0.6-1.3-0.9-2.3-0.9c-1.4,0-1.9,0.9-1.9,2.2v20.4C136.4,242.8,137,243.6,138.3,243.6"/>
	<path class="st1" d="M156.1,245.8c-1.4,0-2.7-0.6-3.5-1.5c0,0.4-0.2,0.8-0.3,1.2h-1.8v-36.4h2.4v8.7c0.8-0.7,1.9-1.2,3.2-1.2
		c1.8,0,3.6,0.9,3.6,4.1v21C159.7,244.9,158,245.8,156.1,245.8 M152.9,242.7c0.7,0.5,1.4,0.9,2.4,0.9c1.4,0,1.9-0.9,1.9-2.2V221
		c0-1.3-0.6-2.2-1.9-2.2c-1,0-1.7,0.4-2.3,0.9v21.8C153,241.9,153,242.3,152.9,242.7"/>
	<path class="st1" d="M165.9,245.5h-1.4l-3.1-28.5h2.6l2.2,25.3l2.4-25.3h2.5l-3.3,28.5h0.1c-0.7,5.5-2.6,6.8-6.4,6.9v-2.1
		C164.8,250.2,165.6,248,165.9,245.5"/>
</g>
<g id="Layer_2-2_00000112593857716521876880000015705996611181438396_">
	<g id="Layer_1-2_00000024721656564302177030000016592814331665598372_">
		<g>
			<g>
				<path class="st3" d="M195.6,242.9c-2.8-1.6-5-3.8-6.6-6.6s-2.4-5.9-2.4-9.3s0.8-6.5,2.4-9.3c1.6-2.8,3.9-5,6.6-6.6
					c2.8-1.6,5.8-2.4,9.2-2.4c2.6,0,5.1,0.5,7.4,1.4c2.3,0.9,4.2,2.3,5.7,3.9l-3.9,4c-1.1-1.3-2.5-2.2-4.1-2.9s-3.3-1-5.2-1
					c-2.2,0-4.3,0.5-6.3,1.6s-3.5,2.6-4.7,4.6s-1.8,4.3-1.8,6.8s0.6,4.9,1.8,6.8c1.2,2,2.7,3.5,4.7,4.6c1.9,1.1,4.1,1.6,6.4,1.6
					c2.1,0,3.8-0.3,5.2-0.9c1.4-0.6,2.7-1.5,3.8-2.5c0.7-0.7,1.3-1.6,1.8-2.7c0.5-1.1,0.8-2.2,1-3.5h-11.8v-4.9h16.9
					c0.1,0.9,0.3,1.9,0.3,2.8c0,2.2-0.3,4.3-1,6.4c-0.7,2-1.8,3.8-3.3,5.3c-3.3,3.5-7.6,5.2-12.9,5.2
					C201.4,245.3,198.4,244.5,195.6,242.9z"/>
				<path class="st3" d="M230.1,243.6c-2-1.2-3.5-2.7-4.6-4.7s-1.6-4.3-1.6-6.7s0.5-4.7,1.6-6.7s2.7-3.6,4.6-4.7
					c2-1.2,4.2-1.7,6.7-1.7s4.7,0.6,6.7,1.8s3.5,2.8,4.6,4.8s1.6,4.2,1.6,6.7c0,2.4-0.5,4.7-1.6,6.7s-2.7,3.6-4.6,4.7
					c-2,1.2-4.2,1.7-6.7,1.7C234.3,245.3,232.1,244.7,230.1,243.6L230.1,243.6L230.1,243.6z M240.6,239.4c1.2-0.7,2.1-1.6,2.8-2.9
					c0.7-1.2,1.1-2.7,1.1-4.4s-0.4-3.1-1.1-4.4c-0.7-1.2-1.6-2.2-2.8-2.8s-2.4-1-3.8-1s-2.6,0.3-3.8,1s-2.1,1.6-2.8,2.8
					s-1.1,2.7-1.1,4.4s0.4,3.2,1.1,4.4c0.7,1.2,1.6,2.2,2.8,2.9s2.4,1,3.8,1S239.4,240.1,240.6,239.4z"/>
				<path class="st3" d="M257.7,243.6c-2-1.2-3.5-2.7-4.6-4.7s-1.6-4.3-1.6-6.7s0.5-4.7,1.6-6.7s2.7-3.6,4.6-4.7
					c2-1.2,4.2-1.7,6.7-1.7s4.7,0.6,6.7,1.8s3.5,2.8,4.6,4.8s1.6,4.2,1.6,6.7c0,2.4-0.5,4.7-1.6,6.7s-2.7,3.6-4.6,4.7
					c-2,1.2-4.2,1.7-6.7,1.7S259.7,244.7,257.7,243.6L257.7,243.6L257.7,243.6z M268.3,239.4c1.2-0.7,2.1-1.6,2.8-2.9
					c0.7-1.2,1.1-2.7,1.1-4.4s-0.4-3.1-1.1-4.4c-0.7-1.2-1.6-2.2-2.8-2.8c-1.2-0.7-2.4-1-3.8-1s-2.6,0.3-3.8,1s-2.1,1.6-2.8,2.8
					c-0.7,1.2-1.1,2.7-1.1,4.4s0.4,3.2,1.1,4.4s1.6,2.2,2.8,2.9c1.2,0.7,2.4,1,3.8,1S267.1,240.1,268.3,239.4z"/>
			</g>
			<path class="st3" d="M283.6,253.8c-2-1.4-3.3-3.1-4-5l5-2.1c0.5,1.3,1.4,2.3,2.5,3.1s2.5,1.2,4.1,1.2c2.3,0,4.1-0.7,5.3-2.1
				c1.3-1.4,1.9-3.4,1.9-5.8v-2.3h-0.3c-0.8,1.2-1.9,2.1-3.3,2.7s-2.9,1-4.6,1c-2.1,0-4-0.5-5.8-1.6s-3.2-2.6-4.3-4.5
				c-1.1-1.9-1.6-4.2-1.6-6.7s0.5-4.7,1.6-6.7c1.1-1.9,2.5-3.5,4.3-4.5c1.8-1.1,3.7-1.6,5.8-1.6c1.7,0,3.3,0.3,4.6,1
				s2.4,1.6,3.3,2.8h0.3v-3h5.1v23.5c0,2.7-0.5,5-1.6,6.9c-1,1.9-2.5,3.3-4.3,4.3c-1.9,1-4,1.5-6.5,1.5
				C288.1,255.8,285.6,255.1,283.6,253.8L283.6,253.8L283.6,253.8z M294.8,238.7c1.1-0.6,2-1.5,2.6-2.7c0.7-1.2,1-2.6,1-4.2
				c0-2.5-0.7-4.5-2.1-5.8s-3.1-2.1-5.2-2.1c-1.3,0-2.6,0.3-3.7,0.9s-2,1.5-2.6,2.7c-0.7,1.2-1,2.6-1,4.3s0.3,3.1,1,4.3
				s1.5,2.1,2.6,2.7s2.3,0.9,3.7,0.9C292.5,239.7,293.7,239.3,294.8,238.7L294.8,238.7z"/>
			<g>
				<path class="st3" d="M306.7,209.6h5.4v34.9h-5.4V209.6z"/>
				<path class="st3" d="M320.9,243.6c-1.9-1.1-3.4-2.7-4.5-4.7s-1.6-4.2-1.6-6.8c0-2.4,0.5-4.6,1.6-6.6s2.5-3.7,4.4-4.9
					s4-1.8,6.4-1.8s4.7,0.5,6.5,1.6s3.3,2.6,4.2,4.5c0.9,1.9,1.4,4.1,1.4,6.5c0,0.4,0,1-0.1,1.7h-19.1c0.2,2.3,1,4.1,2.4,5.3
					c1.5,1.2,3.1,1.9,5,1.9c1.5,0,2.8-0.4,4-1.1c1.1-0.7,2-1.6,2.7-2.8l4.5,2.2c-1.2,2-2.7,3.7-4.6,4.8c-1.9,1.2-4.1,1.8-6.8,1.8
					C325.1,245.3,322.9,244.7,320.9,243.6z M333.9,229.2c-0.1-0.9-0.3-1.8-0.8-2.6c-0.5-0.9-1.2-1.6-2.2-2.2s-2.2-0.9-3.6-0.9
					c-1.7,0-3.2,0.5-4.3,1.5c-1.2,1-2,2.4-2.4,4.1L333.9,229.2L333.9,229.2L333.9,229.2L333.9,229.2z"/>
			</g>
			<path class="st3" d="M353.1,209.6h12.1c2,0,3.9,0.4,5.7,1.4c1.8,0.9,3.1,2.2,4.1,3.8s1.5,3.5,1.5,5.5s-0.5,3.9-1.5,5.5
				s-2.4,2.9-4.1,3.8c-1.8,0.9-3.6,1.4-5.7,1.4h-6.6v13.6h-5.4v-35H353.1z M365.3,225.8c1.2,0,2.2-0.3,3.1-0.8s1.5-1.2,2-2.1
				c0.4-0.8,0.7-1.7,0.7-2.6c0-0.9-0.2-1.8-0.7-2.6c-0.4-0.8-1.1-1.5-2-2s-1.9-0.8-3.1-0.8h-6.7v11L365.3,225.8L365.3,225.8z"/>
			<path class="st3" d="M379.5,215.4c-0.7-0.7-1.1-1.5-1.1-2.6c0-1,0.4-1.9,1.1-2.6c0.7-0.7,1.5-1.1,2.6-1.1c1,0,1.9,0.4,2.6,1.1
				c0.7,0.7,1.1,1.5,1.1,2.6c0,1-0.4,1.9-1.1,2.6c-0.7,0.7-1.6,1.1-2.6,1.1S380.3,216.1,379.5,215.4z M379.4,219.7h5.4v24.9h-5.4
				V219.7L379.4,219.7L379.4,219.7z"/>
			<path class="st3" d="M396.4,231.9l-8.6-12.2h6.2l5.5,8.1h0.1l5.3-8.1h6.4l-8.7,12.2l8.8,12.6H405l-5.6-8.4h-0.1l-5.4,8.4h-6.4
				L396.4,231.9z"/>
			<path class="st3" d="M416.9,243.6c-1.9-1.1-3.4-2.7-4.5-4.7s-1.6-4.2-1.6-6.8c0-2.4,0.5-4.6,1.6-6.6s2.5-3.7,4.4-4.9
				s4-1.8,6.4-1.8s4.7,0.5,6.5,1.6s3.3,2.6,4.2,4.5c0.9,1.9,1.4,4.1,1.4,6.5c0,0.4,0,1-0.1,1.7h-19.1c0.2,2.3,1,4.1,2.4,5.3
				c1.5,1.2,3.1,1.9,5,1.9c1.5,0,2.8-0.4,4-1.1s2-1.6,2.7-2.8l4.5,2.2c-1.2,2-2.7,3.7-4.6,4.8c-1.9,1.2-4.1,1.8-6.8,1.8
				C421.1,245.3,418.9,244.7,416.9,243.6L416.9,243.6L416.9,243.6z M429.9,229.2c-0.1-0.9-0.3-1.8-0.8-2.6c-0.5-0.9-1.2-1.6-2.2-2.2
				c-1-0.6-2.2-0.9-3.6-0.9c-1.7,0-3.2,0.5-4.3,1.5c-1.2,1-2,2.4-2.4,4.1L429.9,229.2L429.9,229.2L429.9,229.2L429.9,229.2z"/>
			<path class="st3" d="M438,209.6h5.4v34.9H438V209.6z"/>
		</g>
	</g>
</g>
</svg>
